<svg xmlns="http://www.w3.org/2000/svg" xmlns:xlink="http://www.w3.org/1999/xlink" width="64" height="64" viewBox="0 0 64 64"><defs><path id="a" d="M.06 64V.04H64V64z"/></defs><g fill="none" fill-rule="evenodd"><mask id="b" fill="#fff"><use xlink:href="#a"/></mask><path fill="#4C5665" d="M64 32c0 17.673-14.327 32-32 32C14.327 64 0 49.673 0 32 0 14.327 14.327 0 32 0c17.673 0 32 14.327 32 32" mask="url(#b)"/><path fill="#73BBA3" d="M30 24v25a2 2 0 0 0 4 0V24a2 2 0 1 0-4 0"/><path fill="#414A55" d="M31.996 57.432l-.044-.004-.045.004c-14.071 0-18.518-11.977-18.903-18.31a1.999 1.999 0 0 1 3.279-1.656c.045.037 4.509 3.75 10.016 6.782 1.517.835 2.73 1.777 3.701 2.75V49a2 2 0 0 0 4 0v-2.098c.954-.939 2.137-1.846 3.604-2.654 5.518-3.038 10.083-6.758 10.129-6.795a1.997 1.997 0 0 1 2.178-.233 2 2 0 0 1 1.085 1.902c-.385 6.333-4.852 18.31-19 18.31"/><path fill="#629986" d="M32 51a2 2 0 0 1-2-2v-2.002a14.031 14.031 0 0 1 1.952 2.444A13.983 13.983 0 0 1 34 46.902V49a2 2 0 0 1-2 2"/><path fill="#73BBA3" d="M31.996 53.432s0-5.813 6.573-9.432C44.327 40.83 49 37 49 37s-1 16.432-17.004 16.432"/><path fill="#73BBA3" d="M31.996 53.432h2-1.069l1.069.019v-.019h-1.069l1.069.019s.001-.068.014-.204c.045-.478.24-1.712 1.003-3.122.769-1.413 2.076-3.021 4.521-4.373 5.946-3.277 10.678-7.162 10.734-7.205L49 37l-1.996-.121.45.027-.45-.031v.004l.45.027-.45-.031c.003.085-.31 3.95-2.354 7.552-1.019 1.806-2.438 3.539-4.439 4.828-2.005 1.285-4.611 2.171-8.215 2.177v2h2-2v2c4.341.006 7.836-1.134 10.507-2.896 2.005-1.318 3.541-2.962 4.704-4.655 1.745-2.545 2.672-5.197 3.184-7.225.509-2.03.599-3.443.605-3.535a1.996 1.996 0 0 0-1.086-1.902 1.998 1.998 0 0 0-2.178.234l-.044.036c-.479.39-4.863 3.887-10.084 6.759-3.693 2.023-5.666 4.789-6.623 7.033-.966 2.249-.983 3.965-.985 4.151 0 .526.213 1.042.586 1.414a2.01 2.01 0 0 0 1.414.586v-2"/><path fill="#73BBA3" d="M31.907 53.432s0-5.813-6.572-9.432C19.577 40.83 15 37 15 37s1 16.432 16.907 16.432"/><path fill="#73BBA3" d="M31.907 53.432h2c-.002-.186-.018-1.902-.985-4.151-.957-2.244-2.93-5.01-6.623-7.033-2.777-1.529-5.3-3.236-7.116-4.555a70.911 70.911 0 0 1-2.713-2.074l-.144-.118-.042-.035a2.002 2.002 0 0 0-3.28 1.655c.019.161.264 4.503 2.728 9.052 1.236 2.269 3.057 4.6 5.72 6.36 2.658 1.763 6.136 2.905 10.455 2.899.527 0 1.042-.213 1.415-.586.372-.372.585-.888.585-1.414h-2v-2c-3.635-.006-6.246-.918-8.25-2.236-1.5-.992-2.665-2.236-3.581-3.576-1.373-2.005-2.163-4.228-2.589-5.937a20.145 20.145 0 0 1-.408-2.077 13.476 13.476 0 0 1-.069-.568l-.012-.135-.002-.027-.257.018.257-.015v-.003l-.257.018.257-.015L15 37l-1.283 1.534c.058.046 4.698 3.936 10.653 7.218 2.88 1.595 4.193 3.546 4.879 5.113.338.783.504 1.469.584 1.939.04.235.059.415.067.525l.007.11v.012l1.069-.019h-1.069v.019l1.069-.019h-1.069 2v-2 2"/><path fill="#414A55" d="M24.203 31.797A8.003 8.003 0 0118.062 23a8.008 8.008 0 005.942 6.749 8.002 8.002 0 00.199 2.048M39.797 31.797a8.002 8.002 0 00.199-2.048A8.008 8.008 0 0045.938 23a8.003 8.003 0 01-6.141 8.797"/><path fill="#414A55" d="M30 37.748a8.013 8.013 0 0 1-5.797-5.951c.273.063.551.112.834.146A8.018 8.018 0 0 0 30 35.748v2m4 0v-2a8.018 8.018 0 0 0 4.963-3.805c.283-.034.561-.083.834-.146A8.013 8.013 0 0 1 34 37.748"/><path fill="#629986" d="M32 38a8.035 8.035 0 0 1-2-.252v-2a8.035 8.035 0 0 0 4 0v2A8.035 8.035 0 0 1 32 38"/><path fill="#3A4048" d="M25.037 31.943a7.895 7.895 0 01-.834-.146 8.002 8.002 0 01-.199-2.048c.066.017.132.033.199.048.175.763.459 1.484.834 2.146M38.963 31.943a7.965 7.965 0 00.834-2.146c.067-.015.133-.031.199-.048a8.002 8.002 0 01-.199 2.048 7.895 7.895 0 01-.834.146"/><path fill="#B85756" d="M34 22a8 8 0 1 1-16 0 8 8 0 0 1 16 0"/><path fill="#B85756" d="M46 22a8 8 0 1 1-16 0 8 8 0 0 1 16 0"/><path fill="#B85756" d="M32 24a8 8 0 1 1 0-16 8 8 0 0 1 0 16"/><path fill="#B85756" d="M32 36a8 8 0 1 1 0-16 8 8 0 0 1 0 16"/><path fill="#974D4C" d="M27.91 21.123A4.994 4.994 0 0 1 32 19c1.69 0 3.185.839 4.09 2.123A7.968 7.968 0 0 0 32 20c-1.494 0-2.893.41-4.09 1.123"/><path fill="#974D4C" d="M32 29a5 5 0 0 1-4.09-7.877A7.968 7.968 0 0 1 32 20c1.494 0 2.893.41 4.09 1.123A5 5 0 0 1 32 29"/><path fill="#F0CB83" d="M37 22a5 5 0 1 1-10.001-.001A5 5 0 0 1 37 22"/></g></svg>